{
  "asset": {
    "generator": "glTF-Transform v3.10.0",
    "version": "2.0",
    "extras": {
      "author": "dewa (https://sketchfab.com/dewa)",
      "license": "CC-BY-4.0 (http://creativecommons.org/licenses/by/4.0/)",
      "source": "https://sketchfab.com/3d-models/teeth-3a0fb31b9d864b27a0846aca8579461c",
      "title": "Teeth"
    }
  },
  "accessors": [
    {
      "type": "VEC3",
      "componentType": 5126,
      "count": 2669,
      "max": [0.5168200135231018, 0.4776099920272827, 0.19596529006958008],
      "min": [0.006870001554489136, 0.009418010711669922, 0],
      "bufferView": 0,
      "byteOffset": 0
    },
    {
      "type": "VEC3",
      "componentType": 5126,
      "count": 2669,
      "bufferView": 0,
      "byteOffset": 12
    },
    {
      "type": "VEC2",
      "componentType": 5126,
      "count": 2669,
      "bufferView": 0,
      "byteOffset": 24
    },
    {
      "type": "VEC3",
      "componentType": 5126,
      "count": 36,
      "max": [0.24330700933933258, 0.5657060146331787, 0.1926441192626953],
      "min": [0.08788901567459106, 0.44465601444244385, 0.09122419357299805],
      "bufferView": 1,
      "byteOffset": 0
    },
    {
      "type": "VEC3",
      "componentType": 5126,
      "count": 36,
      "bufferView": 1,
      "byteOffset": 12
    },
    {
      "type": "VEC2",
      "componentType": 5126,
      "count": 36,
      "bufferView": 1,
      "byteOffset": 24
    },
    {
      "type": "VEC3",
      "componentType": 5126,
      "count": 2771,
      "max": [0.5235720276832581, 0.4763219952583313, 0.4141254425048828],
      "min": [
        0.00012001395225524902, 0.0026760101318359375, 0.27538013458251953
      ],
      "bufferView": 2,
      "byteOffset": 0
    },
    {
      "type": "VEC3",
      "componentType": 5126,
      "count": 2771,
      "bufferView": 2,
      "byteOffset": 12
    },
    {
      "type": "VEC2",
      "componentType": 5126,
      "count": 2771,
      "bufferView": 2,
      "byteOffset": 24
    },
    {
      "type": "VEC3",
      "componentType": 5126,
      "count": 3288,
      "max": [0.5147570371627808, 0.45089301466941833, 0.2376394271850586],
      "min": [0.0089150071144104, 0, 0.08115720748901367],
      "bufferView": 3,
      "byteOffset": 0
    },
    {
      "type": "VEC3",
      "componentType": 5126,
      "count": 3288,
      "bufferView": 3,
      "byteOffset": 12
    },
    {
      "type": "VEC2",
      "componentType": 5126,
      "count": 3288,
      "bufferView": 3,
      "byteOffset": 24
    },
    {
      "type": "VEC3",
      "componentType": 5126,
      "count": 3324,
      "max": [0.5236940383911133, 0.4650590121746063, 0.33561229705810547],
      "min": [0, 0.0004210174083709717, 0.23180532455444336],
      "bufferView": 4,
      "byteOffset": 0
    },
    {
      "type": "VEC3",
      "componentType": 5126,
      "count": 3324,
      "bufferView": 4,
      "byteOffset": 12
    },
    {
      "type": "VEC2",
      "componentType": 5126,
      "count": 3324,
      "bufferView": 4,
      "byteOffset": 24
    },
    {
      "type": "VEC3",
      "componentType": 5126,
      "count": 1369,
      "max": [0.4352530241012573, 0.565919041633606, 0.21657800674438477],
      "min": [0.08788901567459106, 0.038660019636154175, 0.08283424377441406],
      "bufferView": 5,
      "byteOffset": 0
    },
    {
      "type": "VEC3",
      "componentType": 5126,
      "count": 1369,
      "bufferView": 5,
      "byteOffset": 12
    },
    {
      "type": "VEC2",
      "componentType": 5126,
      "count": 1369,
      "bufferView": 5,
      "byteOffset": 24
    },
    {
      "type": "SCALAR",
      "componentType": 5125,
      "count": 15744,
      "bufferView": 6,
      "byteOffset": 0
    },
    {
      "type": "SCALAR",
      "componentType": 5125,
      "count": 96,
      "bufferView": 6,
      "byteOffset": 62976
    },
    {
      "type": "SCALAR",
      "componentType": 5125,
      "count": 16272,
      "bufferView": 6,
      "byteOffset": 63360
    },
    {
      "type": "SCALAR",
      "componentType": 5125,
      "count": 16800,
      "bufferView": 6,
      "byteOffset": 128448
    },
    {
      "type": "SCALAR",
      "componentType": 5125,
      "count": 16896,
      "bufferView": 6,
      "byteOffset": 195648
    },
    {
      "type": "SCALAR",
      "componentType": 5125,
      "count": 7824,
      "bufferView": 6,
      "byteOffset": 263232
    }
  ],
  "bufferViews": [
    {
      "buffer": 0,
      "byteOffset": 0,
      "byteLength": 85408,
      "byteStride": 32,
      "target": 34962
    },
    {
      "buffer": 0,
      "byteOffset": 85408,
      "byteLength": 1152,
      "byteStride": 32,
      "target": 34962
    },
    {
      "buffer": 0,
      "byteOffset": 86560,
      "byteLength": 88672,
      "byteStride": 32,
      "target": 34962
    },
    {
      "buffer": 0,
      "byteOffset": 175232,
      "byteLength": 105216,
      "byteStride": 32,
      "target": 34962
    },
    {
      "buffer": 0,
      "byteOffset": 280448,
      "byteLength": 106368,
      "byteStride": 32,
      "target": 34962
    },
    {
      "buffer": 0,
      "byteOffset": 386816,
      "byteLength": 43808,
      "byteStride": 32,
      "target": 34962
    },
    { "buffer": 0, "byteOffset": 430624, "byteLength": 294528, "target": 34963 }
  ],
  "samplers": [
    { "magFilter": 9729, "minFilter": 9987, "wrapS": 10497, "wrapT": 10497 }
  ],
  "textures": [
    { "source": 0, "sampler": 0 },
    { "source": 1, "sampler": 0 }
  ],
  "images": [
    { "mimeType": "image/png", "uri": "textures/Gums_diffuse.png" },
    { "mimeType": "image/png", "uri": "textures/Tongue_diffuse.png" }
  ],
  "buffers": [{ "uri": "scene.bin", "byteLength": 725152 }],
  "materials": [
    {
      "name": "Gums",
      "doubleSided": true,
      "pbrMetallicRoughness": {
        "roughnessFactor": 0.16000000000000003,
        "metallicFactor": 0,
        "baseColorTexture": { "index": 0 }
      },
      "extensions": {
        "KHR_materials_ior": { "ior": 1000 },
        "KHR_materials_specular": { "specularColorFactor": [0.26, 0.26, 0.26] }
      }
    },
    {
      "name": "Teeth",
      "doubleSided": true,
      "pbrMetallicRoughness": {
        "roughnessFactor": 0.28,
        "metallicFactor": 0,
        "baseColorTexture": { "index": 0 }
      },
      "extensions": {
        "KHR_materials_ior": { "ior": 1000 },
        "KHR_materials_specular": { "specularColorFactor": [0.28, 0.28, 0.28] }
      }
    },
    {
      "name": "Tongue",
      "doubleSided": true,
      "pbrMetallicRoughness": {
        "roughnessFactor": 0.3500000000000001,
        "metallicFactor": 0,
        "baseColorTexture": { "index": 1 }
      },
      "extensions": {
        "KHR_materials_ior": { "ior": 1000 },
        "KHR_materials_specular": { "specularColorFactor": [0.11, 0.11, 0.11] }
      }
    }
  ],
  "meshes": [
    {
      "name": "Object_0",
      "primitives": [
        {
          "attributes": { "NORMAL": 1, "POSITION": 0, "TEXCOORD_0": 2 },
          "mode": 4,
          "material": 0,
          "indices": 18
        }
      ]
    },
    {
      "name": "Object_1",
      "primitives": [
        {
          "attributes": { "NORMAL": 4, "POSITION": 3, "TEXCOORD_0": 5 },
          "mode": 4,
          "material": 0,
          "indices": 19
        }
      ]
    },
    {
      "name": "Object_2",
      "primitives": [
        {
          "attributes": { "NORMAL": 7, "POSITION": 6, "TEXCOORD_0": 8 },
          "mode": 4,
          "material": 0,
          "indices": 20
        }
      ]
    },
    {
      "name": "Object_3",
      "primitives": [
        {
          "attributes": { "NORMAL": 10, "POSITION": 9, "TEXCOORD_0": 11 },
          "mode": 4,
          "material": 1,
          "indices": 21
        }
      ]
    },
    {
      "name": "Object_4",
      "primitives": [
        {
          "attributes": { "NORMAL": 13, "POSITION": 12, "TEXCOORD_0": 14 },
          "mode": 4,
          "material": 1,
          "indices": 22
        }
      ]
    },
    {
      "name": "Object_5",
      "primitives": [
        {
          "attributes": { "NORMAL": 16, "POSITION": 15, "TEXCOORD_0": 17 },
          "mode": 4,
          "material": 2,
          "indices": 23
        }
      ]
    }
  ],
  "nodes": [
    {
      "name": "Sketchfab_model",
      "rotation": [-0.7071067811865475, 0, 0, 0.7071067811865476],
      "scale": [4.134925842285156, 4.134925842285156, 4.134925842285156],
      "children": [1]
    },
    {
      "name": "Teeth.obj.cleaner.gles",
      "translation": [0, 0, 0],
      "children": [2]
    },
    { "name": "Object_2", "children": [3, 4, 5, 6, 7, 8] },
    { "name": "Object_3", "mesh": 0 },
    { "name": "Object_4", "mesh": 1 },
    { "name": "Object_5", "mesh": 2 },
    { "name": "Object_6", "mesh": 3 },
    { "name": "Object_7", "mesh": 4 },
    { "name": "Object_8", "mesh": 5 }
  ],
  "scenes": [{ "name": "Sketchfab_Scene", "nodes": [0] }],
  "scene": 0,
  "extensionsUsed": ["KHR_materials_ior", "KHR_materials_specular"]
}
