{
  "accessors": [
    {
      "bufferView": 2,
      "componentType": 5126,
      "count": 2669,
      "max": [
        0.5168200135231018,
        0.4776099920272827,
        0.19596529006958008
      ],
      "min": [
        0.006870001554489136,
        0.009418010711669922,
        0.0
      ],
      "type": "VEC3"
    },
    {
      "bufferView": 2,
      "byteOffset": 32028,
      "componentType": 5126,
      "count": 2669,
      "max": [
        0.999902606010437,
        0.9886452555656433,
        0.9999825954437256
      ],
      "min": [
        -0.9999423027038574,
        -0.9975682497024536,
        -0.41799795627593994
      ],
      "type": "VEC3"
    },
    {
      "bufferView": 1,
      "componentType": 5126,
      "count": 2669,
      "max": [
        0.9513999819755554,
        0.3840000033378601
      ],
      "min": [
        0.47209998965263367,
        0.031199999153614044
      ],
      "type": "VEC2"
    },
    {
      "bufferView": 0,
      "componentType": 5125,
      "count": 15744,
      "type": "SCALAR"
    },
    {
      "bufferView": 2,
      "byteOffset": 64056,
      "componentType": 5126,
      "count": 36,
      "max": [
        0.24330700933933258,
        0.5657060146331787,
        0.1926441192626953
      ],
      "min": [
        0.08788901567459106,
        0.44465601444244385,
        0.09122419357299805
      ],
      "type": "VEC3"
    },
    {
      "bufferView": 2,
      "byteOffset": 64488,
      "componentType": 5126,
      "count": 36,
      "max": [
        0.07590170204639435,
        0.2705060541629791,
        0.9804250597953796
      ],
      "min": [
        -0.9945077896118164,
        -0.27050161361694336,
        -0.9728974103927612
      ],
      "type": "VEC3"
    },
    {
      "bufferView": 1,
      "byteOffset": 21352,
      "componentType": 5126,
      "count": 36,
      "max": [
        0.973800003528595,
        0.09749999642372131
      ],
      "min": [
        0.8400999903678894,
        0.005100000184029341
      ],
      "type": "VEC2"
    },
    {
      "bufferView": 0,
      "byteOffset": 62976,
      "componentType": 5125,
      "count": 96,
      "type": "SCALAR"
    },
    {
      "bufferView": 2,
      "byteOffset": 64920,
      "componentType": 5126,
      "count": 2771,
      "max": [
        0.5235720276832581,
        0.4763219952583313,
        0.4141254425048828
      ],
      "min": [
        0.00012001395225524902,
        0.0026760101318359375,
        0.27538013458251953
      ],
      "type": "VEC3"
    },
    {
      "bufferView": 2,
      "byteOffset": 98172,
      "componentType": 5126,
      "count": 2771,
      "max": [
        0.999896764755249,
        0.9988259077072144,
        0.27010631561279297
      ],
      "min": [
        -0.9999743700027466,
        -0.9972133040428162,
        -0.9999985694885254
      ],
      "type": "VEC3"
    },
    {
      "bufferView": 1,
      "byteOffset": 21640,
      "componentType": 5126,
      "count": 2771,
      "max": [
        0.5443999767303467,
        0.6310999989509583
      ],
      "min": [
        0.04919999837875366,
        0.2768000066280365
      ],
      "type": "VEC2"
    },
    {
      "bufferView": 0,
      "byteOffset": 63360,
      "componentType": 5125,
      "count": 16272,
      "type": "SCALAR"
    },
    {
      "bufferView": 2,
      "byteOffset": 131424,
      "componentType": 5126,
      "count": 3288,
      "max": [
        0.5147570371627808,
        0.45089301466941833,
        0.2376394271850586
      ],
      "min": [
        0.0089150071144104,
        0.0,
        0.08115720748901367
      ],
      "type": "VEC3"
    },
    {
      "bufferView": 2,
      "byteOffset": 170880,
      "componentType": 5126,
      "count": 3288,
      "max": [
        0.999906063079834,
        0.9982751607894897,
        0.9983158707618713
      ],
      "min": [
        -0.9999704360961914,
        -0.9989354610443115,
        -0.5707053542137146
      ],
      "type": "VEC3"
    },
    {
      "bufferView": 1,
      "byteOffset": 43808,
      "componentType": 5126,
      "count": 3288,
      "max": [
        0.965399980545044,
        0.8058000206947327
      ],
      "min": [
        0.07919999957084656,
        0.6547999978065491
      ],
      "type": "VEC2"
    },
    {
      "bufferView": 0,
      "byteOffset": 128448,
      "componentType": 5125,
      "count": 16800,
      "type": "SCALAR"
    },
    {
      "bufferView": 2,
      "byteOffset": 210336,
      "componentType": 5126,
      "count": 3324,
      "max": [
        0.5236940383911133,
        0.4650590121746063,
        0.33561229705810547
      ],
      "min": [
        0.0,
        0.0004210174083709717,
        0.23180532455444336
      ],
      "type": "VEC3"
    },
    {
      "bufferView": 2,
      "byteOffset": 250224,
      "componentType": 5126,
      "count": 3324,
      "max": [
        0.9999692440032959,
        0.9993723630905151,
        0.39792317152023315
      ],
      "min": [
        -0.9999581575393677,
        -0.9996286034584045,
        -0.9996034502983093
      ],
      "type": "VEC3"
    },
    {
      "bufferView": 1,
      "byteOffset": 70112,
      "componentType": 5126,
      "count": 3324,
      "max": [
        0.9901999831199646,
        0.9562000036239624
      ],
      "min": [
        0.0142000000923872,
        0.5109000205993652
      ],
      "type": "VEC2"
    },
    {
      "bufferView": 0,
      "byteOffset": 195648,
      "componentType": 5125,
      "count": 16896,
      "type": "SCALAR"
    },
    {
      "bufferView": 2,
      "byteOffset": 290112,
      "componentType": 5126,
      "count": 1369,
      "max": [
        0.4352530241012573,
        0.565919041633606,
        0.21657800674438477
      ],
      "min": [
        0.08788901567459106,
        0.038660019636154175,
        0.08283424377441406
      ],
      "type": "VEC3"
    },
    {
      "bufferView": 2,
      "byteOffset": 306540,
      "componentType": 5126,
      "count": 1369,
      "max": [
        0.9986180067062378,
        0.2796022295951843,
        0.9998553395271301
      ],
      "min": [
        -0.9982465505599976,
        -0.9962374567985535,
        -0.9952543377876282
      ],
      "type": "VEC3"
    },
    {
      "bufferView": 1,
      "byteOffset": 96704,
      "componentType": 5126,
      "count": 1369,
      "max": [
        0.9807000160217285,
        0.2175000011920929
      ],
      "min": [
        0.6730999946594238,
        0.004399999976158142
      ],
      "type": "VEC2"
    },
    {
      "bufferView": 0,
      "byteOffset": 263232,
      "componentType": 5125,
      "count": 7824,
      "type": "SCALAR"
    }
  ],
  "asset": {
    "extras": {
      "author": "dewa (https://sketchfab.com/dewa)",
      "license": "CC-BY-4.0 (http://creativecommons.org/licenses/by/4.0/)",
      "source": "https://sketchfab.com/3d-models/teeth-3a0fb31b9d864b27a0846aca8579461c",
      "title": "Teeth"
    },
    "generator": "Sketchfab-12.66.0",
    "version": "2.0"
  },
  "bufferViews": [
    {
      "buffer": 0,
      "byteLength": 294528,
      "name": "floatBufferViews",
      "target": 34963
    },
    {
      "buffer": 0,
      "byteLength": 107656,
      "byteOffset": 294528,
      "byteStride": 8,
      "name": "floatBufferViews",
      "target": 34962
    },
    {
      "buffer": 0,
      "byteLength": 322968,
      "byteOffset": 402184,
      "byteStride": 12,
      "name": "floatBufferViews",
      "target": 34962
    }
  ],
  "buffers": [
    {
      "byteLength": 725152,
      "uri": "scene.bin"
    }
  ],
  "extensionsRequired": [
    "KHR_materials_pbrSpecularGlossiness"
  ],
  "extensionsUsed": [
    "KHR_materials_pbrSpecularGlossiness"
  ],
  "images": [
    {
      "uri": "textures/Gums_diffuse.png"
    },
    {
      "uri": "textures/Tongue_diffuse.png"
    }
  ],
  "materials": [
    {
      "doubleSided": true,
      "extensions": {
        "KHR_materials_pbrSpecularGlossiness": {
          "diffuseFactor": [
            1.0,
            1.0,
            1.0,
            1.0
          ],
          "diffuseTexture": {
            "index": 0
          },
          "glossinessFactor": 0.84,
          "specularFactor": [
            0.26,
            0.26,
            0.26
          ]
        }
      },
      "name": "Gums"
    },
    {
      "doubleSided": true,
      "extensions": {
        "KHR_materials_pbrSpecularGlossiness": {
          "diffuseFactor": [
            1.0,
            1.0,
            1.0,
            1.0
          ],
          "diffuseTexture": {
            "index": 0
          },
          "glossinessFactor": 0.72,
          "specularFactor": [
            0.28,
            0.28,
            0.28
          ]
        }
      },
      "name": "Teeth"
    },
    {
      "doubleSided": true,
      "extensions": {
        "KHR_materials_pbrSpecularGlossiness": {
          "diffuseFactor": [
            1.0,
            1.0,
            1.0,
            1.0
          ],
          "diffuseTexture": {
            "index": 1
          },
          "glossinessFactor": 0.6499999999999999,
          "specularFactor": [
            0.11,
            0.11,
            0.11
          ]
        }
      },
      "name": "Tongue"
    }
  ],
  "meshes": [
    {
      "name": "Object_0",
      "primitives": [
        {
          "attributes": {
            "NORMAL": 1,
            "POSITION": 0,
            "TEXCOORD_0": 2
          },
          "indices": 3,
          "material": 0,
          "mode": 4
        }
      ]
    },
    {
      "name": "Object_1",
      "primitives": [
        {
          "attributes": {
            "NORMAL": 5,
            "POSITION": 4,
            "TEXCOORD_0": 6
          },
          "indices": 7,
          "material": 0,
          "mode": 4
        }
      ]
    },
    {
      "name": "Object_2",
      "primitives": [
        {
          "attributes": {
            "NORMAL": 9,
            "POSITION": 8,
            "TEXCOORD_0": 10
          },
          "indices": 11,
          "material": 0,
          "mode": 4
        }
      ]
    },
    {
      "name": "Object_3",
      "primitives": [
        {
          "attributes": {
            "NORMAL": 13,
            "POSITION": 12,
            "TEXCOORD_0": 14
          },
          "indices": 15,
          "material": 1,
          "mode": 4
        }
      ]
    },
    {
      "name": "Object_4",
      "primitives": [
        {
          "attributes": {
            "NORMAL": 17,
            "POSITION": 16,
            "TEXCOORD_0": 18
          },
          "indices": 19,
          "material": 1,
          "mode": 4
        }
      ]
    },
    {
      "name": "Object_5",
      "primitives": [
        {
          "attributes": {
            "NORMAL": 21,
            "POSITION": 20,
            "TEXCOORD_0": 22
          },
          "indices": 23,
          "material": 2,
          "mode": 4
        }
      ]
    }
  ],
  "nodes": [
    {
      "children": [
        1
      ],
      "matrix": [
        4.134925842285156,
        0.0,
        0.0,
        0.0,
        0.0,
        9.181379750445098e-16,
        -4.134925842285156,
        0.0,
        0.0,
        4.134925842285156,
        9.181379750445098e-16,
        0.0,
        0.0,
        0.0,
        0.0,
        1.0
      ],
      "name": "Sketchfab_model"
    },
    {
      "children": [
        2
      ],
      "matrix": [
        1.0,
        0.0,
        0.0,
        0.0,
        0.0,
        1.0,
        0.0,
        0.0,
        0.0,
        0.0,
        1.0,
        0.0,
        -0.26218101382255554,
        -0.31402701139450073,
        4.671014785766602,
        1.0
      ],
      "name": "Teeth.obj.cleaner.gles"
    },
    {
      "children": [
        3,
        4,
        5,
        6,
        7,
        8
      ],
      "name": "Object_2"
    },
    {
      "mesh": 0,
      "name": "Object_3"
    },
    {
      "mesh": 1,
      "name": "Object_4"
    },
    {
      "mesh": 2,
      "name": "Object_5"
    },
    {
      "mesh": 3,
      "name": "Object_6"
    },
    {
      "mesh": 4,
      "name": "Object_7"
    },
    {
      "mesh": 5,
      "name": "Object_8"
    }
  ],
  "samplers": [
    {
      "magFilter": 9729,
      "minFilter": 9987,
      "wrapS": 10497,
      "wrapT": 10497
    }
  ],
  "scene": 0,
  "scenes": [
    {
      "name": "Sketchfab_Scene",
      "nodes": [
        0
      ]
    }
  ],
  "textures": [
    {
      "sampler": 0,
      "source": 0
    },
    {
      "sampler": 0,
      "source": 1
    }
  ]
}
